<?xml version="1.0" encoding="utf-8"?>
<!-- Generator: Adobe Illustrator 26.0.0, SVG Export Plug-In . SVG Version: 6.00 Build 0)  -->
<svg version="1.1" id="Layer_1" xmlns="http://www.w3.org/2000/svg" xmlns:xlink="http://www.w3.org/1999/xlink" x="0px" y="0px"
	 viewBox="0 0 65 22" style="enable-background:new 0 0 65 22;" xml:space="preserve">
<style type="text/css">
	.st0{fill:#F7931E;}
	.st1{fill:#0071BC;}
	.st2{fill:#22B573;}
</style>
<path d="M2,11.8V4.3h6v1.9H4.1v1h3.4v1.6H4.1V10H8v1.9H2z"/>
<path d="M9.2,9.6V7.8H13v1.8H9.2z"/>
<path d="M18.2,11.9c-0.8,0-1.4-0.1-2-0.4c-0.6-0.3-1-0.7-1.4-1.3c-0.3-0.6-0.5-1.3-0.5-2.2c0-0.6,0.1-1.2,0.3-1.7
	c0.2-0.5,0.5-0.9,0.9-1.2c0.4-0.3,0.8-0.6,1.3-0.7c0.5-0.2,1-0.2,1.6-0.2c0.4,0,0.8,0,1.1,0.1s0.7,0.2,1.1,0.3l0.1,0l-0.4,1.7
	l-0.3,0c-0.3,0-0.6-0.1-0.8-0.1c-0.3,0-0.5,0-0.8,0c-0.4,0-0.7,0.1-1,0.2c-0.3,0.1-0.5,0.3-0.6,0.6c-0.1,0.3-0.2,0.6-0.2,1.1
	c0,0.5,0.1,0.8,0.2,1.1c0.1,0.3,0.3,0.5,0.6,0.6c0.3,0.1,0.6,0.2,1,0.2c0.2,0,0.5,0,0.7,0c0.3,0,0.6-0.1,0.9-0.1l0.5-0.1l0.3,1.7
	l-0.2,0.1c-0.4,0.1-0.8,0.3-1.2,0.3S18.5,11.9,18.2,11.9z"/>
<path d="M24.9,11.9c-0.8,0-1.5-0.2-2.1-0.5c-0.6-0.3-1-0.8-1.4-1.3c-0.3-0.6-0.5-1.3-0.5-2c0-0.8,0.2-1.5,0.5-2
	c0.3-0.6,0.8-1,1.4-1.3c0.6-0.3,1.3-0.5,2.1-0.5c0.8,0,1.5,0.2,2.1,0.5c0.6,0.3,1,0.8,1.4,1.3c0.3,0.6,0.5,1.3,0.5,2
	c0,0.8-0.2,1.4-0.5,2c-0.3,0.6-0.8,1-1.4,1.3C26.4,11.8,25.7,11.9,24.9,11.9z M24.9,9.9c0.4,0,0.7-0.1,0.9-0.2
	c0.3-0.1,0.5-0.3,0.6-0.6c0.1-0.3,0.2-0.6,0.2-1.1c0-0.5-0.1-0.8-0.2-1.1c-0.1-0.3-0.3-0.5-0.6-0.6c-0.3-0.1-0.6-0.2-0.9-0.2
	c-0.4,0-0.7,0.1-0.9,0.2c-0.3,0.1-0.5,0.3-0.6,0.6c-0.1,0.3-0.2,0.6-0.2,1.1c0,0.5,0.1,0.8,0.2,1.1s0.3,0.5,0.6,0.6
	C24.2,9.9,24.6,9.9,24.9,9.9z"/>
<path d="M29.9,11.8V4.3H32l2.2,3.6h0l2.2-3.6h2v7.5h-2.1v-4L35,10.1h-1.5l-1.4-2.3v4H29.9z"/>
<path d="M2.2,20.8v-6.1h2.2c0.6,0,1.2,0.1,1.6,0.4c0.5,0.2,0.8,0.6,1.1,1c0.3,0.5,0.4,1,0.4,1.6c0,0.6-0.1,1.2-0.4,1.6
	c-0.3,0.5-0.6,0.8-1.1,1s-1,0.4-1.7,0.4H2.2z M2.9,20.1h1.4c0.5,0,0.9-0.1,1.3-0.3c0.4-0.2,0.6-0.5,0.8-0.8c0.2-0.4,0.3-0.8,0.3-1.3
	c0-0.5-0.1-0.9-0.3-1.3c-0.2-0.4-0.5-0.6-0.8-0.8c-0.4-0.2-0.8-0.3-1.3-0.3H2.9V20.1z"/>
<path d="M8.4,20.8l2.5-6.1h0.9l2.5,6.1h-0.8l-2.1-5.3h0l-2.1,5.3H8.4z M9.6,19.3v-0.6h3.3v0.6H9.6z"/>
<path d="M17.6,20.8c-0.3,0-0.7,0-0.9-0.1s-0.5-0.1-0.7-0.2l-0.5-0.1l0.1-0.6l0.6,0.1c0.2,0.1,0.5,0.1,0.8,0.1c0.3,0,0.5,0,0.7,0
	c0.5,0,0.9-0.1,1.1-0.3c0.3-0.2,0.4-0.4,0.4-0.8c0-0.2,0-0.3-0.1-0.5c-0.1-0.1-0.2-0.2-0.5-0.4c-0.2-0.1-0.6-0.2-1-0.4
	c-0.5-0.1-0.9-0.3-1.2-0.4c-0.3-0.1-0.5-0.3-0.6-0.5c-0.1-0.2-0.2-0.4-0.2-0.7c0-0.4,0.1-0.7,0.3-1s0.5-0.4,0.8-0.5
	c0.3-0.1,0.7-0.2,1.1-0.2c0.3,0,0.5,0,0.8,0.1c0.3,0,0.5,0.1,0.8,0.2l0.3,0.1l-0.1,0.6l-0.4-0.1c-0.2,0-0.5-0.1-0.7-0.1
	c-0.2,0-0.5,0-0.7,0c-0.5,0-0.9,0.1-1.1,0.3c-0.3,0.2-0.4,0.4-0.4,0.8c0,0.2,0,0.3,0.1,0.4c0.1,0.1,0.2,0.2,0.5,0.3
	c0.2,0.1,0.6,0.2,1,0.3c0.5,0.1,0.9,0.3,1.2,0.4c0.3,0.2,0.5,0.3,0.6,0.5c0.1,0.2,0.2,0.5,0.2,0.8c0,0.4-0.1,0.7-0.3,1
	c-0.2,0.3-0.5,0.5-0.8,0.6C18.4,20.8,18,20.8,17.6,20.8z"/>
<path d="M21.7,20.8v-6.1h0.7v2.6H26v-2.6h0.7v6.1H26v-2.8h-3.6v2.8H21.7z"/>
<path d="M28.9,20.8v-6.1h2.6c0.4,0,0.7,0.1,1,0.2c0.3,0.1,0.5,0.3,0.6,0.5c0.1,0.2,0.2,0.5,0.2,0.8c0,0.3-0.1,0.6-0.2,0.8
	c-0.1,0.2-0.3,0.4-0.7,0.5v0c0.3,0.1,0.6,0.2,0.8,0.5c0.2,0.2,0.3,0.5,0.3,0.9c0,0.4-0.1,0.7-0.2,0.9c-0.2,0.3-0.4,0.5-0.7,0.6
	c-0.3,0.1-0.6,0.2-1.1,0.2H28.9z M29.7,17.3h2c0.3,0,0.6-0.1,0.8-0.3c0.2-0.2,0.3-0.4,0.3-0.7c0-0.3-0.1-0.5-0.3-0.7
	c-0.2-0.2-0.5-0.3-0.9-0.3h-1.9V17.3z M29.7,20.1h1.9c0.4,0,0.7-0.1,0.9-0.3c0.2-0.2,0.3-0.5,0.3-0.9c0-0.3-0.1-0.6-0.3-0.7
	C32.3,18.1,32,18,31.7,18h-2V20.1z"/>
<path d="M38.2,20.8c-0.6,0-1.1-0.1-1.6-0.4c-0.5-0.3-0.8-0.6-1.1-1.1c-0.3-0.5-0.4-1-0.4-1.6c0-0.6,0.1-1.2,0.4-1.6
	c0.3-0.5,0.6-0.8,1.1-1.1c0.5-0.3,1-0.4,1.6-0.4c0.6,0,1.1,0.1,1.6,0.4c0.5,0.3,0.8,0.6,1.1,1.1c0.3,0.5,0.4,1,0.4,1.6
	c0,0.6-0.1,1.2-0.4,1.6c-0.3,0.5-0.6,0.8-1.1,1.1C39.3,20.7,38.8,20.8,38.2,20.8z M38.2,20.2c0.5,0,0.8-0.1,1.2-0.3
	c0.3-0.2,0.6-0.5,0.8-0.9c0.2-0.4,0.3-0.8,0.3-1.3c0-0.5-0.1-0.9-0.3-1.3c-0.2-0.4-0.5-0.6-0.8-0.8c-0.3-0.2-0.7-0.3-1.2-0.3
	c-0.4,0-0.8,0.1-1.2,0.3c-0.3,0.2-0.6,0.5-0.8,0.8c-0.2,0.4-0.3,0.8-0.3,1.3c0,0.5,0.1,0.9,0.3,1.3c0.2,0.4,0.5,0.7,0.8,0.9
	C37.3,20.1,37.7,20.2,38.2,20.2z"/>
<path d="M42.1,20.8l2.5-6.1h0.9l2.5,6.1h-0.8L45,15.4h0l-2.1,5.3H42.1z M43.3,19.3v-0.6h3.3v0.6H43.3z"/>
<path d="M49.4,20.8v-6.1H52c0.4,0,0.8,0.1,1.1,0.2c0.3,0.1,0.6,0.3,0.7,0.6c0.2,0.3,0.3,0.6,0.3,1c0,0.3,0,0.5-0.1,0.8
	c-0.1,0.2-0.2,0.4-0.4,0.6c-0.2,0.2-0.4,0.3-0.7,0.4c-0.3,0.1-0.6,0.1-1,0.1h-1.7v2.5H49.4z M50.1,17.7H52c0.4,0,0.8-0.1,1-0.3
	s0.4-0.5,0.4-0.9c0-0.4-0.1-0.7-0.4-0.8c-0.2-0.2-0.6-0.3-1.1-0.3h-1.8V17.7z M53.6,20.8l-1.6-2.6l0.7-0.2l1.8,2.7H53.6z"/>
<path d="M56.1,20.8v-6.1h2.2c0.6,0,1.2,0.1,1.6,0.4c0.5,0.2,0.8,0.6,1.1,1c0.3,0.5,0.4,1,0.4,1.6c0,0.6-0.1,1.2-0.4,1.6
	c-0.3,0.5-0.6,0.8-1.1,1c-0.5,0.2-1,0.4-1.7,0.4H56.1z M56.8,20.1h1.4c0.5,0,0.9-0.1,1.3-0.3c0.4-0.2,0.6-0.5,0.8-0.8
	c0.2-0.4,0.3-0.8,0.3-1.3c0-0.5-0.1-0.9-0.3-1.3c-0.2-0.4-0.5-0.6-0.8-0.8c-0.4-0.2-0.8-0.3-1.3-0.3h-1.4V20.1z"/>
<g>
	<path class="st0" d="M46.9,12.4c2.9,0,5.2-2.3,5.2-5.2h-5.2V12.4z"/>
	<path class="st1" d="M41.6,7.2h5.2V2C44,2,41.6,4.3,41.6,7.2z"/>
	<path class="st2" d="M46.9,12.4V7.2h-5.2C41.6,10.1,44,12.4,46.9,12.4z"/>
</g>
</svg>
