<?xml version="1.0" encoding="utf-8"?>
<!-- Generator: Adobe Illustrator 26.0.0, SVG Export Plug-In . SVG Version: 6.00 Build 0)  -->
<svg version="1.1" id="Layer_1" xmlns="http://www.w3.org/2000/svg" xmlns:xlink="http://www.w3.org/1999/xlink" x="0px" y="0px"
	 viewBox="0 0 11.8 11.8" style="enable-background:new 0 0 11.8 11.8;" xml:space="preserve">
<style type="text/css">
	.st0{fill:#F7931E;}
	.st1{fill:#0071BC;}
	.st2{fill:#22B573;}
	.st3{fill:#FFFFFF;}
</style>
<path d="M5.9,0.6v5.3h5.3C11.2,3.1,8.8,0.6,5.9,0.6z"/>
<path class="st0" d="M6,11.1c2.9,0,5.2-2.3,5.2-5.2H6C6,5.9,6,11.1,6,11.1z"/>
<path class="st1" d="M0.7,5.9h5.2V0.6C3.1,0.6,0.7,3,0.7,5.9z"/>
<path class="st2" d="M6,11.1V5.9H0.7C0.7,8.8,3.1,11.1,6,11.1z"/>
<path class="st3" d="M3.7,8.6V3.1h4.4v1.4H5.3v0.7h2.5v1.2H5.3v0.8h2.8v1.4H3.7z"/>
</svg>
