<?xml version="1.0" encoding="utf-8"?>
<!-- Generator: Adobe Illustrator 26.0.0, SVG Export Plug-In . SVG Version: 6.00 Build 0)  -->
<svg version="1.1" id="Layer_1" xmlns="http://www.w3.org/2000/svg" xmlns:xlink="http://www.w3.org/1999/xlink" x="0px" y="0px"
	 viewBox="0 0 80 11" style="enable-background:new 0 0 80 11;" xml:space="preserve">
<style type="text/css">
	.st0{fill:#0071BC;}
	.st1{fill:#ED1C24;}
	.st2{fill:#0A031E;}
</style>
<g>
	<polygon class="st0" points="73.3,10.8 69.9,10.8 62.2,0.2 65.6,0.2 	"/>
	<polygon class="st1" points="78.9,10.8 75.4,10.8 67.7,0.2 71.2,0.2 	"/>
	<path class="st2" d="M0.3,10.8V0.2h4.2c1.1,0,2.2,0.2,3,0.6c0.9,0.4,1.5,1,2,1.7c0.5,0.8,0.7,1.8,0.7,3c0,1.1-0.2,2.1-0.7,2.8
		c-0.5,0.8-1.2,1.4-2,1.8c-0.9,0.4-1.9,0.6-3.1,0.6L0.3,10.8L0.3,10.8z M3.4,8.1h1.1C5.1,8.1,5.6,8,6,7.8C6.4,7.6,6.7,7.4,6.9,7
		c0.2-0.4,0.3-0.9,0.3-1.5c0-0.7-0.1-1.2-0.3-1.6C6.7,3.6,6.4,3.3,6,3.1C5.6,3,5.1,2.9,4.4,2.9h-1V8.1z"/>
	<path class="st2" d="M16.9,10.9c-1.1,0-2.1-0.2-2.9-0.7c-0.8-0.4-1.5-1.1-1.9-1.9s-0.7-1.8-0.7-2.9s0.2-2,0.7-2.8s1.1-1.4,1.9-1.9
		C14.8,0.3,15.8,0,16.9,0s2.1,0.2,3,0.7s1.5,1.1,1.9,1.9s0.7,1.8,0.7,2.9s-0.2,2-0.7,2.8s-1.1,1.4-1.9,1.9S18,10.9,16.9,10.9z
		 M16.9,8.1c0.5,0,0.9-0.1,1.3-0.2c0.4-0.2,0.6-0.4,0.8-0.8c0.2-0.4,0.3-0.9,0.3-1.6c0-0.6-0.1-1.2-0.3-1.5s-0.5-0.6-0.8-0.8
		S17.4,3,16.9,3S16,3.1,15.6,3.2C15.3,3.3,15,3.6,14.8,4s-0.3,0.9-0.3,1.6c0,0.6,0.1,1.1,0.3,1.5s0.5,0.7,0.8,0.8
		C15.9,8,16.4,8.1,16.9,8.1z"/>
	<path class="st2" d="M23.9,10.8V0.2h2.9l3.1,5l0,0l3.1-5h2.9v10.5h-3V5.2l-2,3.2h-2.1l-2-3.2v5.5h-2.9V10.8z"/>
	<path class="st2" d="M37.8,10.8V0.2h5.4c0.8,0,1.5,0.2,2.1,0.5s1,0.7,1.3,1.3S47,3.2,47,4s-0.2,1.4-0.5,2s-0.8,1-1.3,1.3
		c-0.6,0.3-1.2,0.5-2,0.5h-2.3v3H37.8z M40.8,5.2h1.6c0.5,0,0.8-0.1,1.1-0.3c0.2-0.2,0.4-0.5,0.4-1s-0.1-0.8-0.4-1
		c-0.3-0.2-0.6-0.3-1.1-0.3h-1.6V5.2z"/>
	<path class="st2" d="M53.8,10.8H57L53.1,0.2h-3.4l-3.8,10.5H49l0.5-1.6h3.8L53.8,10.8z M50.3,6.9l1.1-3.5l0,0l1.1,3.5H50.3z"/>
	<path class="st2" d="M64.2,10.8L62,7.6l-2.1,3.2h-3.3l3.6-5.4l-3.5-5.2h3.6l1.9,3l2.1-3h3.3L64,5.3l3.7,5.4L64.2,10.8L64.2,10.8z"
		/>
</g>
</svg>
